#!OML:ASF \\sashay\E\Suitcase\Project 1\Capture day 1\Session 1\Male1.ASF
:FULLY-SPECIFIED
:DEGREES
668
root 0.228042 17.3668 9.0167 0.37259 3.35311 -5.87732
lowerback 4.63098 -0.741477 3.92652
upperback -3.29784 -0.477508 4.04166
thorax -6.04276 -0.30495 2.06199
lowerneck -16.7896 -0.629262 -0.722953
upperneck 19.46 -0.0735609 -2.68057
head 8.86753 -0.382076 -0.801453
rclavicle -2.03754e-014 3.97569e-015
rhumerus -24.2516 -31.3999 -68.5219
rradius 18.5036
rwrist -2.44865
rhand -12.2386 18.4458
rfingers 7.12502
rthumb 13.8271 -11.0746
lclavicle -2.03754e-014 3.97569e-015
lhumerus -38.3096 9.50399 85.154
lradius 23.3494
lwrist -16.4793
lhand -4.75723 43.4871
lfingers 7.12502
lthumb 21.0267 72.3672
rfemur -6.19702 -2.18027 31.3612
rtibia 19.6238
rfoot -11.6497 -11.583
rtoes 16.6135
lfemur -21.0399 1.74055 -11.6564
ltibia 70.372
lfoot -0.884624 -7.14093
ltoes 17.1249
669
root 0.220515 17.3581 9.14712 0.129767 3.19493 -6.1559
lowerback 4.46366 -0.616547 4.17219
upperback -2.85659 -0.332432 4.00151
thorax -5.48406 -0.237278 1.855
lowerneck -17.3777 -0.763665 -0.835286
upperneck 19.7053 -0.26347 -2.45861
head 9.05697 -0.460992 -0.736635
rclavicle -1.40143e-014 5.08889e-014
rhumerus -23.5117 -31.1616 -69.2111
rradius 19.1285
rwrist -3.3949
rhand -12.2156 17.897
rfingers 7.12502
rthumb 13.8492 -11.6219
lclavicle -1.40143e-014 5.08889e-014
lhumerus -37.5629 11.1687 84.1131
lradius 22.2483
lwrist -15.7782
lhand -7.31887 43.1095
lfingers 7.12502
lthumb 18.5641 72.2437
rfemur -5.5048 -2.09681 31.7074
rtibia 19.7273
rfoot -11.9505 -11.5042
rtoes 16.0744
lfemur -21.8806 1.70017 -11.3353
ltibia 70.1066
lfoot -1.7321 -7.01192
ltoes 16.1451
670
root 0.216269 17.3389 9.27722 -0.121737 3.06251 -6.54299
lowerback 4.94118 -0.578792 4.47726
upperback -3.10819 -0.205382 4.0751
thorax -6.02698 -0.191208 1.76323
lowerneck -17.169 -0.800654 -1.36836
upperneck 19.6842 -0.341986 -1.7229
head 9.01354 -0.455066 -0.405295
rclavicle -1.59028e-015 1.82882e-014
rhumerus -23.6975 -29.6748 -69.3336
rradius 19.3065
rwrist -4.83796
rhand -12.1351 18.626
rfingers 7.12502
rthumb 13.9268 -10.8876
lclavicle -1.59028e-015 1.82882e-014
lhumerus -38.574 12.2594 83.0681
lradius 22.2673
lwrist -14.9736
lhand -5.38302 44.4292
lfingers 7.12502
lthumb 20.4254 73.3749
rfemur -4.72307 -2.30023 32.1029
rtibia 19.6495
rfoot -12.2115 -11.2813
rtoes 17.3845
lfemur -22.5837 1.34847 -10.8458
ltibia 69.7407
lfoot -3.08141 -6.8361
ltoes 16.1683
671
root 0.219241 17.3391 9.41426 0.0423803 2.91503 -6.29222
lowerback 5.72538 -0.592669 4.21295
upperback -3.97316 -0.145558 3.92335
thorax -7.40062 -0.171155 1.77972
lowerneck -16.0555 -0.594147 -1.03693
upperneck 20.2287 -0.148859 -1.75907
head 8.99708 -0.343247 -0.445958
rclavicle -9.98893e-015 2.18663e-014
rhumerus -25.002 -30.6339 -68.3434
rradius 19.3011
rwrist -3.39179
rhand -11.4616 18.7237
rfingers 7.12502
rthumb 14.5758 -10.7442
lclavicle -9.98893e-015 2.18663e-014
lhumerus -40.4159 13.055 81.8666
lradius 22.4936
lwrist -13.514
lhand -5.45234 45.1936
lfingers 7.12502
lthumb 20.3587 74.1465
rfemur -4.43252 -2.33324 31.7831
rtibia 19.8629
rfoot -12.8107 -10.8684
rtoes 17.1353
lfemur -23.5405 1.05494 -11.2917
ltibia 69.0731
lfoot -4.66377 -6.34694
ltoes 14.3767
672
root 0.208151 17.3178 9.53614 -0.135412 2.82057 -6.7369
lowerback 4.50534 -0.477263 4.45918
upperback -2.78767 -0.124085 4.07021
thorax -5.43772 -0.142544 1.74657
lowerneck -17.0439 -0.632956 -0.772268
upperneck 19.4392 -0.187126 -2.12244
head 8.90482 -0.378843 -0.618568
rclavicle 3.23025e-015 -1.47101e-014
rhumerus -22.6768 -31.1077 -69.5049
rradius 19.5496
rwrist -3.86524
rhand -11.3954 18.5546
rfingers 7.12502
rthumb 14.6396 -10.9086
lclavicle 3.23025e-015 -1.47101e-014
lhumerus -38.4658 14.9702 81.147
lradius 21.4407
lwrist -13.5143
lhand -5.2902 45.004
lfingers 7.12502
lthumb 20.5146 73.9402
rfemur -3.85718 -2.03479 32.3665
rtibia 20.0791
rfoot -13.461 -10.9849
rtoes 16.8653
lfemur -24.3477 0.570315 -10.6995
ltibia 68.2994
lfoot -6.03331 -6.09112
ltoes 14.4678
673
root 0.21226 17.2971 9.66577 -0.142835 2.7271 -6.08236
lowerback 4.55297 -0.365082 3.84676
upperback -2.84368 -0.0242303 3.79375
thorax -5.5193 -0.0773273 1.79201
lowerneck -16.667 -0.858108 -1.09638
upperneck 19.393 -0.466155 -1.91815
head 8.82026 -0.509551 -0.527681
rclavicle -3.13086e-015 3.65764e-014
rhumerus -22.6741 -30.0977 -69.7498
rradius 20.0889
rwrist -5.19426
rhand -10.8619 19.031
rfingers 7.12502
rthumb 15.1535 -10.3941
lclavicle -3.13086e-015 3.65764e-014
lhumerus -38.9763 15.2618 80.6012
lradius 21.6511
lwrist -12.2811
lhand -4.89267 46.0142
lfingers 7.12502
lthumb 20.8965 74.9087
rfemur -3.47409 -2.22689 31.5927
rtibia 20.4168
rfoot -13.7418 -10.7738
rtoes 15.4213
lfemur -24.9128 0.145994 -11.6454
ltibia 67.1813
lfoot -7.06536 -5.11964
ltoes 8.05015
674
root 0.207078 17.275 9.79539 -0.125221 2.60642 -6.9173
lowerback 4.44175 -0.290261 4.50972
upperback -2.78129 0.12064 4.00057
thorax -5.39352 -0.0242237 1.62221
lowerneck -17.1917 -1.08514 -2.0539
upperneck 19.4331 -0.801777 -0.627652
head 8.93741 -0.598757 0.0247187
rclavicle -9.19379e-016 -2.14687e-014
rhumerus -22.5592 -29.5613 -70.0297
rradius 20.5288
rwrist -5.81518
rhand -11.1878 18.465
rfingers 7.12502
rthumb 14.8396 -10.9836
lclavicle -9.19379e-016 -2.14687e-014
lhumerus -38.8759 16.1604 79.9329
lradius 21.3512
lwrist -11.7082
lhand -5.50325 45.8741
lfingers 7.12502
lthumb 20.3098 74.8321
rfemur -3.30046 -1.87769 32.5536
rtibia 20.8925
rfoot -14.1879 -10.8671
rtoes 16.8287
lfemur -25.6777 -0.0760925 -10.6314
ltibia 66.0702
lfoot -7.51246 -5.61562
ltoes 11.5993
675
root 0.205284 17.2492 9.92845 -0.404545 2.45812 -6.89724
lowerback 5.40619 -0.303103 4.45248
upperback -3.3319 0.202784 3.9504
thorax -6.53014 0.00143434 1.61415
lowerneck -16.6005 -0.972093 -1.89843
upperneck 19.8026 -0.640396 -0.886029
head 8.95459 -0.541898 -0.0670113
rclavicle -8.39865e-015 -3.49861e-014
rhumerus -23.6217 -29.4968 -69.4649
rradius 20.8645
rwrist -5.56253
rhand -10.6469 18.7208
rfingers 7.12502
rthumb 15.3606 -10.6886
lclavicle -8.39865e-015 -3.49861e-014
lhumerus -40.4421 16.6046 78.9321
lradius 21.4995
lwrist -11.0991
lhand -5.99112 44.6397
lfingers 7.12502
lthumb 19.8409 73.6469
rfemur -2.81827 -2.22227 32.4777
rtibia 21.6241
rfoot -14.7476 -10.4643
rtoes 15.1853
lfemur -25.8096 -0.39251 -10.8116
ltibia 64.6701
lfoot -8.24958 -4.16537
ltoes 6.90025
676
root 0.214112 17.2275 10.0471 -0.0844792 2.37478 -6.61543
lowerback 4.65049 -0.126217 4.20948
upperback -3.03527 0.340506 3.82857
thorax -5.7783 0.0864231 1.59546
lowerneck -17.2346 -0.925726 -1.60348
upperneck 19.9436 -0.614736 -0.987201
head 9.1167 -0.52071 -0.150921
rclavicle 7.1314e-015 2.5842e-014
rhumerus -22.1177 -27.1406 -70.4359
rradius 20.2814
rwrist -8.50147
rhand -11.0482 19.089
rfingers 7.12502
rthumb 14.9741 -10.3496
lclavicle 7.1314e-015 2.5842e-014
lhumerus -40.0077 16.634 78.9403
lradius 21.5238
lwrist -10.3196
lhand -3.84693 47.1159
lfingers 7.12502
lthumb 21.9009 75.8963
rfemur -2.66546 -2.23928 32.1539
rtibia 21.5729
rfoot -14.7268 -10.3659
rtoes 13.5573
lfemur -26.6313 -0.802924 -11.2403
ltibia 63.174
lfoot -8.7738 -3.54412
ltoes 6.52431
677
root 0.20961 17.197 10.1783 -0.16565 2.09247 -6.53292
lowerback 4.53953 -0.0435331 3.98474
upperback -2.80862 0.411074 3.77033
thorax -5.4751 0.13293 1.64932
lowerneck -16.7604 -1.13769 -1.932
upperneck 19.1529 -0.902016 -0.713275
head 8.76284 -0.643503 -0.0337194
rclavicle -7.90169e-015 1.94809e-014
rhumerus -21.7053 -27.0281 -70.8512
rradius 20.8169
rwrist -8.96148
rhand -10.8931 18.9515
rfingers 7.12502
rthumb 15.1235 -10.4759
lclavicle -7.90169e-015 1.94809e-014
lhumerus -39.9118 17.091 78.5081
lradius 21.6122
lwrist -10.048
lhand -3.50465 46.2099
lfingers 7.12502
lthumb 22.2296 74.9515
rfemur -2.05263 -1.75031 32.0491
rtibia 21.7222
rfoot -15.3778 -10.0561
rtoes 15.6092
lfemur -26.8416 -0.968614 -11.3989
ltibia 61.4913
lfoot -9.80492 -2.36351
ltoes 4.82003
